<svg width="302" height="246" xmlns="http://www.w3.org/2000/svg" xmlns:xlink="http://www.w3.org/1999/xlink" overflow="hidden"><defs><clipPath id="clip0"><rect x="929" y="530" width="302" height="246"/></clipPath><clipPath id="clip1"><rect x="939" y="535" width="34" height="34"/></clipPath><clipPath id="clip2"><rect x="939" y="535" width="34" height="34"/></clipPath><clipPath id="clip3"><rect x="938" y="535" width="36" height="34"/></clipPath><clipPath id="clip4"><rect x="938" y="535" width="36" height="34"/></clipPath><clipPath id="clip5"><rect x="938" y="535" width="35" height="34"/></clipPath><clipPath id="clip6"><rect x="938" y="535" width="35" height="34"/></clipPath><clipPath id="clip7"><rect x="938" y="535" width="35" height="34"/></clipPath><clipPath id="clip8"><rect x="938" y="535" width="35" height="34"/></clipPath><clipPath id="clip9"><rect x="981" y="657" width="33" height="34"/></clipPath><clipPath id="clip10"><rect x="981" y="657" width="33" height="34"/></clipPath><clipPath id="clip11"><rect x="980" y="657" width="35" height="34"/></clipPath><clipPath id="clip12"><rect x="980" y="657" width="35" height="34"/></clipPath><clipPath id="clip13"><rect x="980" y="657" width="34" height="34"/></clipPath><clipPath id="clip14"><rect x="980" y="657" width="34" height="34"/></clipPath><clipPath id="clip15"><rect x="980" y="657" width="34" height="34"/></clipPath><clipPath id="clip16"><rect x="980" y="657" width="34" height="34"/></clipPath></defs><g clip-path="url(#clip0)" transform="translate(-929 -530)"><rect x="929" y="530" width="302" height="246" fill="#FFFFFF"/><path d="M960.5 638.5 955 647.5 949.5 638.5Z" stroke="#4472C4" stroke-width="1.33333" stroke-miterlimit="8" fill="none" fill-rule="evenodd"/><path d="M947.478 542.493 1177.48 542.493 1177.48 645.493 947.478 645.493Z" stroke="#262261" stroke-width="1.33333" stroke-miterlimit="8" fill="#FFFFFF" fill-rule="evenodd"/><g clip-path="url(#clip1)"><g clip-path="url(#clip2)"><g clip-path="url(#clip3)"><g clip-path="url(#clip4)"><path d="M188.645 275.839 223.742 275.839 223.742 308.742 188.645 308.742Z" fill="#FFFFFF" transform="matrix(1.00067 0 0 1 749.668 259.161)"/><g clip-path="url(#clip5)"><g clip-path="url(#clip6)"><g clip-path="url(#clip7)"><g clip-path="url(#clip8)"><path d="M20.3529 16.8296 17.7875 14.572 9.64624 24.5944 12.2459 26.818Z" fill="#262261" transform="matrix(1.05141 0 0 1 938.44 535.82)"/><path d="M9.8515 27.4678 8.48322 26.3732 7.73067 29.6913 10.8093 28.2887Z" fill="#262261" transform="matrix(1.05141 0 0 1 938.44 535.82)"/><path d="M28.2887 1.64191 30.8885 3.86535 32.2568 2.18923 29.5886 0.0342066Z" fill="#262261" transform="matrix(1.05141 0 0 1 938.44 535.82)"/><path d="M23.1919 16.3507 24.7998 17.6506 28.8704 12.6564C30.2386 11.0829 30.8885 9.09895 30.5806 7.45702 30.4439 6.70447 30.1018 6.05458 29.6229 5.50723L27.0231 3.24963 19.0531 12.9985 21.6528 15.2561 28.2546 7.11494C28.3915 7.3202 28.494 7.55963 28.5282 7.83333 28.7335 8.85952 28.2204 10.2277 27.2967 11.3224L23.1919 16.3507Z" fill="#262261" transform="matrix(1.05141 0 0 1 938.44 535.82)"/><path d="M1.74453 26.7153C1.81295 26.5442 1.88136 26.3732 1.98399 26.2022 2.18923 25.8602 2.42867 25.5865 2.73652 25.3128 3.31803 24.7656 4.07058 24.3208 4.85732 23.9103 5.64405 23.4999 6.46505 23.1237 7.3202 22.7132 7.73067 22.5079 8.17535 22.2684 8.62004 21.9605 8.85952 21.8238 9.06473 21.6528 9.30416 21.4133 9.54364 21.1739 9.78306 20.9001 9.91988 20.4555 10.0909 20.045 10.0567 19.4977 9.91988 19.1215 9.78306 18.711 9.50942 18.4031 9.26999 18.1636 8.75686 17.719 8.27796 17.4796 7.83333 17.2401 6.9439 16.7953 6.08874 16.5218 5.30202 16.1455 4.54947 15.7692 3.89955 15.3587 3.52327 14.8114 3.147 14.2983 3.01018 13.6142 3.11279 12.8617 3.21541 12.0749 3.45487 11.3224 3.86535 10.6724 4.72051 9.37259 6.32822 8.51744 8.03853 8.03853 8.89369 7.79911 9.78306 7.62806 10.7067 7.52541 11.1513 7.45702 11.6302 7.4228 12.0749 7.38864 12.5196 7.35442 12.9985 7.3202 13.4774 7.3202 11.6302 6.84129 9.71468 6.73869 7.79911 6.97812 6.84129 7.11494 5.88354 7.35442 4.95995 7.76489 4.03637 8.17535 3.1812 8.79108 2.49708 9.64624 2.15501 10.0567 1.88136 10.5356 1.67612 11.0145 1.47088 11.5276 1.33406 12.0065 1.23144 12.5538 1.12882 13.1011 1.12882 13.6484 1.19723 14.2299 1.29985 14.8114 1.50509 15.393 1.84715 15.906 2.18923 16.4191 2.59971 16.7953 3.04439 17.1375 3.48907 17.4796 3.93375 17.719 4.37843 17.9585 5.2678 18.4031 6.15718 18.7451 6.9439 19.0872 7.3202 19.2582 7.66228 19.4635 7.86749 19.6346 7.97009 19.703 8.00431 19.7714 8.00431 19.8055 8.00431 19.8399 8.00431 19.8055 8.00431 19.8055 8.00431 19.8055 7.97009 19.9082 7.86749 20.0109 7.76489 20.1135 7.62806 20.216 7.49124 20.3529 7.18338 20.5924 6.80713 20.7975 6.43083 21.037 5.64405 21.4817 4.82312 21.9264 4.00216 22.4053 3.1812 22.9184 2.36025 23.4999 1.67612 24.2867 1.33406 24.6629 1.0262 25.1418 0.820957 25.6207 0.718338 25.8602 0.615718 26.1338 0.58151 26.4075 0.513098 26.6811 0.513098 26.9206 0.478891 27.16 0.444684 27.6731 0.444684 28.1862 0.615718 28.7335 0.752541 29.2466 1.0604 29.7597 1.50509 30.1018 1.94977 30.4439 2.46287 30.6149 2.94176 30.6833 3.45487 30.7516 3.93375 30.7516 4.41264 30.6833 5.37043 30.5806 6.25978 30.307 7.11494 29.965 6.1914 30.136 5.2678 30.2386 4.37843 30.2044 3.93375 30.1701 3.48907 30.136 3.07859 29.9991 2.66811 29.8965 2.29184 29.6913 2.05239 29.4176 1.5393 28.9046 1.47088 28.0836 1.64191 27.2626 1.64191 27.1257 1.71032 26.8863 1.74453 26.7153Z" fill="#262261" transform="matrix(1.05141 0 0 1 938.44 535.82)"/></g></g></g></g></g></g></g></g><text font-family="Consolas,Consolas_MSFontService,sans-serif" font-weight="400" font-size="14" transform="translate(975.683 555)">SBoM<tspan font-size="14" x="38.3334" y="0">Document</tspan><tspan font-family="Calibri,Calibri_MSFontService,sans-serif" font-weight="700" font-size="14" x="20.1838" y="58">sbom</tspan><tspan font-family="Calibri,Calibri_MSFontService,sans-serif" font-weight="700" font-size="14" x="55.3505" y="58">[blobs]</tspan></text><path d="M989.612 609.493 964.167 609.493 964.167 538.5 964.833 538.5 964.833 609.16 964.5 608.826 989.612 608.826ZM988.279 605.16 996.279 609.16 988.279 613.16Z" fill="#4472C4"/><text font-family="Calibri,Calibri_MSFontService,sans-serif" font-weight="700" font-size="14" transform="translate(995.936 636)">reference [manifests]<tspan fill="#FF0000" font-size="14" x="-20.3419" y="-63">mediaType</tspan><tspan font-size="14" x="43.9914" y="-63">: </tspan><tspan fill="#C00000" font-size="14" x="50.9914" y="-63">oci.artifact.manifest</tspan><tspan fill="#FF0000" font-size="14" x="-20.3419" y="-46">artifactType</tspan><tspan font-size="14" x="49.9914" y="-46">: </tspan><tspan fill="#C00000" font-size="14" x="56.9914" y="-46">example.sbom.v0</tspan></text><path d="M989.478 664.493 1219.48 664.493 1219.48 767.493 989.478 767.493Z" stroke="#262261" stroke-width="1.33333" stroke-miterlimit="8" fill="#FFFFFF" fill-rule="evenodd"/><g clip-path="url(#clip9)"><g clip-path="url(#clip10)"><g clip-path="url(#clip11)"><g clip-path="url(#clip12)"><path d="M183.22 267.906 217.307 267.906 217.307 299.862 183.22 299.862Z" fill="#FFFFFF" transform="matrix(1 0 0 1.02961 797.237 381.161)"/><g clip-path="url(#clip13)"><g clip-path="url(#clip14)"><g clip-path="url(#clip15)"><g clip-path="url(#clip16)"><path d="M20.3529 16.8296 17.7875 14.572 9.64624 24.5944 12.2459 26.818Z" fill="#262261" transform="matrix(1.02048 0 0 1 980.456 657.82)"/><path d="M9.8515 27.4678 8.48322 26.3732 7.73067 29.6913 10.8093 28.2887Z" fill="#262261" transform="matrix(1.02048 0 0 1 980.456 657.82)"/><path d="M28.2887 1.64191 30.8885 3.86535 32.2568 2.18923 29.5886 0.0342066Z" fill="#262261" transform="matrix(1.02048 0 0 1 980.456 657.82)"/><path d="M23.1919 16.3507 24.7998 17.6506 28.8704 12.6564C30.2386 11.0829 30.8885 9.09895 30.5806 7.45702 30.4439 6.70447 30.1018 6.05458 29.6229 5.50723L27.0231 3.24963 19.0531 12.9985 21.6528 15.2561 28.2546 7.11494C28.3915 7.3202 28.494 7.55963 28.5282 7.83333 28.7335 8.85952 28.2204 10.2277 27.2967 11.3224L23.1919 16.3507Z" fill="#262261" transform="matrix(1.02048 0 0 1 980.456 657.82)"/><path d="M1.74453 26.7153C1.81295 26.5442 1.88136 26.3732 1.98399 26.2022 2.18923 25.8602 2.42867 25.5865 2.73652 25.3128 3.31803 24.7656 4.07058 24.3208 4.85732 23.9103 5.64405 23.4999 6.46505 23.1237 7.3202 22.7132 7.73067 22.5079 8.17535 22.2684 8.62004 21.9605 8.85952 21.8238 9.06473 21.6528 9.30416 21.4133 9.54364 21.1739 9.78306 20.9001 9.91988 20.4555 10.0909 20.045 10.0567 19.4977 9.91988 19.1215 9.78306 18.711 9.50942 18.4031 9.26999 18.1636 8.75686 17.719 8.27796 17.4796 7.83333 17.2401 6.9439 16.7953 6.08874 16.5218 5.30202 16.1455 4.54947 15.7692 3.89955 15.3587 3.52327 14.8114 3.147 14.2983 3.01018 13.6142 3.11279 12.8617 3.21541 12.0749 3.45487 11.3224 3.86535 10.6724 4.72051 9.37259 6.32822 8.51744 8.03853 8.03853 8.89369 7.79911 9.78306 7.62806 10.7067 7.52541 11.1513 7.45702 11.6302 7.4228 12.0749 7.38864 12.5196 7.35442 12.9985 7.3202 13.4774 7.3202 11.6302 6.84129 9.71468 6.73869 7.79911 6.97812 6.84129 7.11494 5.88354 7.35442 4.95995 7.76489 4.03637 8.17535 3.1812 8.79108 2.49708 9.64624 2.15501 10.0567 1.88136 10.5356 1.67612 11.0145 1.47088 11.5276 1.33406 12.0065 1.23144 12.5538 1.12882 13.1011 1.12882 13.6484 1.19723 14.2299 1.29985 14.8114 1.50509 15.393 1.84715 15.906 2.18923 16.4191 2.59971 16.7953 3.04439 17.1375 3.48907 17.4796 3.93375 17.719 4.37843 17.9585 5.2678 18.4031 6.15718 18.7451 6.9439 19.0872 7.3202 19.2582 7.66228 19.4635 7.86749 19.6346 7.97009 19.703 8.00431 19.7714 8.00431 19.8055 8.00431 19.8399 8.00431 19.8055 8.00431 19.8055 8.00431 19.8055 7.97009 19.9082 7.86749 20.0109 7.76489 20.1135 7.62806 20.216 7.49124 20.3529 7.18338 20.5924 6.80713 20.7975 6.43083 21.037 5.64405 21.4817 4.82312 21.9264 4.00216 22.4053 3.1812 22.9184 2.36025 23.4999 1.67612 24.2867 1.33406 24.6629 1.0262 25.1418 0.820957 25.6207 0.718338 25.8602 0.615718 26.1338 0.58151 26.4075 0.513098 26.6811 0.513098 26.9206 0.478891 27.16 0.444684 27.6731 0.444684 28.1862 0.615718 28.7335 0.752541 29.2466 1.0604 29.7597 1.50509 30.1018 1.94977 30.4439 2.46287 30.6149 2.94176 30.6833 3.45487 30.7516 3.93375 30.7516 4.41264 30.6833 5.37043 30.5806 6.25978 30.307 7.11494 29.965 6.1914 30.136 5.2678 30.2386 4.37843 30.2044 3.93375 30.1701 3.48907 30.136 3.07859 29.9991 2.66811 29.8965 2.29184 29.6913 2.05239 29.4176 1.5393 28.9046 1.47088 28.0836 1.64191 27.2626 1.64191 27.1257 1.71032 26.8863 1.74453 26.7153Z" fill="#262261" transform="matrix(1.02048 0 0 1 980.456 657.82)"/></g></g></g></g></g></g></g></g><text font-family="Consolas,Consolas_MSFontService,sans-serif" font-weight="400" font-size="14" transform="translate(1017.11 677)">wabbit<tspan font-size="14" x="46" y="0">-</tspan><tspan font-size="14" x="53.6666" y="0">networks </tspan><tspan font-size="14" x="122.667" y="0">signature</tspan><tspan font-family="Calibri,Calibri_MSFontService,sans-serif" font-weight="700" font-size="14" x="20.1837" y="57">signature [blobs]</tspan></text><path d="M1031.61 730.493 1006.17 730.493 1006.17 659.5 1006.83 659.5 1006.83 730.16 1006.5 729.826 1031.61 729.826ZM1030.28 726.16 1038.28 730.16 1030.28 734.16Z" fill="#4472C4"/><text font-family="Calibri,Calibri_MSFontService,sans-serif" font-weight="700" font-size="14" transform="translate(1037.37 758)">reference [manifests]<tspan fill="#FF0000" font-size="14" x="-20.3419" y="-63">mediaType</tspan><tspan font-size="14" x="43.9915" y="-63">: </tspan><tspan fill="#C00000" font-size="14" x="50.9915" y="-63">oci.artifact.manifest</tspan><tspan fill="#FF0000" font-size="14" x="-20.3419" y="-46">artifactType</tspan><tspan font-size="14" x="49.9915" y="-46">: </tspan><tspan fill="#C00000" font-size="14" x="56.9915" y="-46">cncf.notary.v2</tspan></text><path d="M1037.7 753.881 954 753.881 954 653.667 956 653.667 956 752.881 955 751.881 1037.7 751.881ZM951 655 955 647 959 655Z" fill="#4472C4"/></g></svg>